<svg width="32" height="32" viewBox="0 0 32 32" fill="none" xmlns="http://www.w3.org/2000/svg">
<path d="M28.9467 27.0533L25.1734 23.2933C27.2189 20.7662 28.2168 17.5505 27.9612 14.3093C27.7056 11.0681 26.2161 8.04857 23.7997 5.8733C21.3833 3.69803 18.2244 2.5329 14.9743 2.61817C11.7241 2.70344 8.63061 4.03261 6.33163 6.3316C4.03264 8.63058 2.70347 11.7241 2.6182 14.9742C2.53293 18.2244 3.69806 21.3833 5.87333 23.7997C8.0486 26.2161 11.0682 27.7056 14.3093 27.9612C17.5505 28.2168 20.7662 27.2189 23.2934 25.1733L27.0534 28.9467C27.1773 29.0716 27.3248 29.1708 27.4873 29.2385C27.6497 29.3062 27.824 29.3411 28 29.3411C28.176 29.3411 28.3503 29.3062 28.5128 29.2385C28.6753 29.1708 28.8227 29.0716 28.9467 28.9467C29.0717 28.8227 29.1709 28.6752 29.2385 28.5128C29.3062 28.3503 29.3411 28.176 29.3411 28C29.3411 27.824 29.3062 27.6497 29.2385 27.4872C29.1709 27.3247 29.0717 27.1773 28.9467 27.0533ZM5.33335 15.3333C5.33335 13.3555 5.91984 11.4221 7.01866 9.77762C8.11747 8.13313 9.67926 6.8514 11.5065 6.09453C13.3338 5.33765 15.3444 5.13962 17.2843 5.52547C19.2241 5.91132 21.0059 6.86373 22.4044 8.26225C23.8029 9.66078 24.7554 11.4426 25.1412 13.3824C25.5271 15.3222 25.329 17.3329 24.5721 19.1602C23.8153 20.9874 22.5335 22.5492 20.8891 23.648C19.2446 24.7468 17.3112 25.3333 15.3334 25.3333C12.6812 25.3333 10.1376 24.2798 8.26228 22.4044C6.38692 20.529 5.33335 17.9855 5.33335 15.3333Z" fill="#514F4D"/>
</svg>
